<?xml version="1.0" encoding="UTF-8"?>
<svg xmlns="http://www.w3.org/2000/svg" width="865" height="670" viewBox="0 0 865 670">
  <defs>
    <filter id="shadow" x="-50%" y="-50%" width="200%" height="200%">
      <feDropShadow dx="1" dy="1" stdDeviation="2" flood-opacity="0.3"/>
    </filter>
  </defs>
  <style>
    .tree-box-dir {
      fill: #add8e6;
      stroke: #4682b4;
      stroke-width: 2;
      rx: 5;
      filter: url(#shadow);
    }
    .tree-box-file {
      fill: #ffffe0;
      stroke: #4682b4;
      stroke-width: 2;
      rx: 5;
      filter: url(#shadow);
    }
    .tree-text {
      font-family: 'Courier New', 'Consolas', monospace;
      font-size: 14px;
      fill: #1a1a1a;
      font-weight: bold;
    }
    .comment-text {
      font-family: 'Courier New', 'Consolas', monospace;
      font-size: 14px;
      fill: #666666;
      font-style: italic;
      font-weight: normal;
    }
    .connector-line {
      stroke: #000000;
      stroke-width: 2;
      fill: none;
    }
    .comment-line {
      stroke: #999999;
      stroke-width: 1;
      stroke-dasharray: 3,3;
      fill: none;
    }
  </style>
  <rect width="100%" height="100%" fill="#ffffff"/>
  <path class="connector-line" d="M 30 50 L 30 75 L 70 75"/>
  <path class="connector-line" d="M 80 90 L 80 115 L 120 115"/>
  <path class="connector-line" d="M 80 90 L 80 155 L 120 155"/>
  <path class="connector-line" d="M 80 90 L 80 195 L 120 195"/>
  <path class="connector-line" d="M 80 90 L 80 235 L 120 235"/>
  <path class="connector-line" d="M 80 90 L 80 275 L 120 275"/>
  <path class="connector-line" d="M 130 290 L 130 315 L 170 315"/>
  <path class="connector-line" d="M 130 290 L 130 355 L 170 355"/>
  <path class="connector-line" d="M 80 90 L 80 395 L 120 395"/>
  <path class="connector-line" d="M 80 90 L 80 435 L 120 435"/>
  <path class="connector-line" d="M 80 90 L 80 475 L 120 475"/>
  <path class="connector-line" d="M 30 50 L 30 515 L 70 515"/>
  <path class="connector-line" d="M 30 50 L 30 555 L 70 555"/>
  <path class="connector-line" d="M 30 50 L 30 595 L 70 595"/>
  <rect class="tree-box-dir" x="20" y="20" width="74" height="30"/>
  <text class="tree-text" x="28" y="39">AoC2025</text>
  <rect class="tree-box-dir" x="70" y="60" width="41" height="30"/>
  <text class="tree-text" x="78" y="79">dXX</text>
  <line class="comment-line" x1="111" y1="75" x2="136" y2="75"/>
  <text class="comment-text" x="141" y="79">Dayly folder</text>
  <rect class="tree-box-file" x="120" y="100" width="66" height="30"/>
  <text class="tree-text" x="128" y="119">go.mod</text>
  <rect class="tree-box-file" x="120" y="140" width="74" height="30"/>
  <text class="tree-text" x="128" y="159">main.go</text>
  <line class="comment-line" x1="194" y1="155" x2="219" y2="155"/>
  <text class="comment-text" x="224" y="159">Standardized main file, no need to change</text>
  <rect class="tree-box-file" x="120" y="180" width="91" height="30"/>
  <text class="tree-text" x="128" y="199">input.txt</text>
  <line class="comment-line" x1="211" y1="195" x2="236" y2="195"/>
  <text class="comment-text" x="241" y="199">Input from AoC site</text>
  <rect class="tree-box-file" x="120" y="220" width="125" height="30"/>
  <text class="tree-text" x="128" y="239">testinput.txt</text>
  <line class="comment-line" x1="245" y1="235" x2="270" y2="235"/>
  <text class="comment-text" x="275" y="239">Test input from AoC site from the text</text>
  <rect class="tree-box-dir" x="120" y="260" width="32" height="30"/>
  <text class="tree-text" x="128" y="279">p1</text>
  <line class="comment-line" x1="152" y1="275" x2="177" y2="275"/>
  <text class="comment-text" x="182" y="279">Part 1</text>
  <rect class="tree-box-file" x="170" y="300" width="58" height="30"/>
  <text class="tree-text" x="178" y="319">p1.go</text>
  <line class="comment-line" x1="228" y1="315" x2="253" y2="315"/>
  <text class="comment-text" x="258" y="319">Solution for Part 1, edit this file</text>
  <rect class="tree-box-file" x="170" y="340" width="100" height="30"/>
  <text class="tree-text" x="178" y="359">p1_test.go</text>
  <line class="comment-line" x1="270" y1="355" x2="295" y2="355"/>
  <text class="comment-text" x="300" y="359">Verify solution using provided input, change expected value</text>
  <rect class="tree-box-dir" x="120" y="380" width="32" height="30"/>
  <text class="tree-text" x="128" y="399">p2</text>
  <line class="comment-line" x1="152" y1="395" x2="177" y2="395"/>
  <text class="comment-text" x="182" y="399">Part 2</text>
  <rect class="tree-box-file" x="120" y="420" width="58" height="30"/>
  <text class="tree-text" x="128" y="439">p2.go</text>
  <rect class="tree-box-file" x="120" y="460" width="100" height="30"/>
  <text class="tree-text" x="128" y="479">p2_test.go</text>
  <rect class="tree-box-file" x="70" y="500" width="91" height="30"/>
  <text class="tree-text" x="78" y="519">README.md</text>
  <line class="comment-line" x1="161" y1="515" x2="186" y2="515"/>
  <text class="comment-text" x="191" y="519">This file</text>
  <rect class="tree-box-file" x="70" y="540" width="74" height="30"/>
  <text class="tree-text" x="78" y="559">LICENSE</text>
  <line class="comment-line" x1="144" y1="555" x2="169" y2="555"/>
  <text class="comment-text" x="174" y="559">BSL license</text>
  <rect class="tree-box-file" x="70" y="580" width="100" height="30"/>
  <text class="tree-text" x="78" y="599">.gitignore</text>
  <line class="comment-line" x1="170" y1="595" x2="195" y2="595"/>
  <text class="comment-text" x="200" y="599">Ignore VScode and Go artifacts</text>
</svg>